<?xml version="1.0" encoding="UTF-8" standalone="no"?>
<!DOCTYPE svg PUBLIC "-//W3C//DTD SVG 1.1//EN"
 "http://www.w3.org/Graphics/SVG/1.1/DTD/svg11.dtd">
<!-- Generated by graphviz version 13.1.2 (0)
 -->
<!-- Title: GlobalDAG Pages: 1 -->
<svg width="3135pt" height="662pt"
 viewBox="0.00 0.00 3135.00 662.00" xmlns="http://www.w3.org/2000/svg" xmlns:xlink="http://www.w3.org/1999/xlink">
<g id="graph0" class="graph" transform="scale(1 1) rotate(0) translate(4 657.9)">
<title>GlobalDAG</title>
<polygon fill="white" stroke="none" points="-4,4 -4,-657.9 3130.98,-657.9 3130.98,4 -4,4"/>
<g id="clust1" class="cluster">
<title>cluster_root</title>
<path fill="#e8f0fe" stroke="#3a7ebf" stroke-width="2" d="M270.7,-73.9C270.7,-73.9 2888.45,-73.9 2888.45,-73.9 2894.45,-73.9 2900.45,-79.9 2900.45,-85.9 2900.45,-85.9 2900.45,-633.9 2900.45,-633.9 2900.45,-639.9 2894.45,-645.9 2888.45,-645.9 2888.45,-645.9 270.7,-645.9 270.7,-645.9 264.7,-645.9 258.7,-639.9 258.7,-633.9 258.7,-633.9 258.7,-85.9 258.7,-85.9 258.7,-79.9 264.7,-73.9 270.7,-73.9"/>
</g>
<g id="clust2" class="cluster">
<title>cluster_root.validator</title>
<path fill="#fff3e0" stroke="#e65100" stroke-width="2" d="M678.95,-291.9C678.95,-291.9 1597.45,-291.9 1597.45,-291.9 1603.45,-291.9 1609.45,-297.9 1609.45,-303.9 1609.45,-303.9 1609.45,-369.9 1609.45,-369.9 1609.45,-375.9 1603.45,-381.9 1597.45,-381.9 1597.45,-381.9 678.95,-381.9 678.95,-381.9 672.95,-381.9 666.95,-375.9 666.95,-369.9 666.95,-369.9 666.95,-303.9 666.95,-303.9 666.95,-297.9 672.95,-291.9 678.95,-291.9"/>
<text xml:space="preserve" text-anchor="middle" x="1138.2" y="-367.45" font-family="Helvetica Bold" font-size="11.00" fill="#e65100">validator</text>
</g>
<g id="clust3" class="cluster">
<title>cluster_root.translate</title>
<path fill="#fff3e0" stroke="#e65100" stroke-width="2" d="M1760.7,-486.9C1760.7,-486.9 2122.2,-486.9 2122.2,-486.9 2128.2,-486.9 2134.2,-492.9 2134.2,-498.9 2134.2,-498.9 2134.2,-625.9 2134.2,-625.9 2134.2,-631.9 2128.2,-637.9 2122.2,-637.9 2122.2,-637.9 1760.7,-637.9 1760.7,-637.9 1754.7,-637.9 1748.7,-631.9 1748.7,-625.9 1748.7,-625.9 1748.7,-498.9 1748.7,-498.9 1748.7,-492.9 1754.7,-486.9 1760.7,-486.9"/>
<text xml:space="preserve" text-anchor="middle" x="1941.45" y="-623.45" font-family="Helvetica Bold" font-size="11.00" fill="#e65100">translate</text>
</g>
<g id="clust4" class="cluster">
<title>cluster_root.nlp</title>
<path fill="#fff3e0" stroke="#e65100" stroke-width="2" d="M1765.58,-152.9C1765.58,-152.9 2366.2,-152.9 2366.2,-152.9 2372.2,-152.9 2378.2,-158.9 2378.2,-164.9 2378.2,-164.9 2378.2,-370.9 2378.2,-370.9 2378.2,-376.9 2372.2,-382.9 2366.2,-382.9 2366.2,-382.9 1765.58,-382.9 1765.58,-382.9 1759.58,-382.9 1753.58,-376.9 1753.58,-370.9 1753.58,-370.9 1753.58,-164.9 1753.58,-164.9 1753.58,-158.9 1759.58,-152.9 1765.58,-152.9"/>
<text xml:space="preserve" text-anchor="middle" x="2065.89" y="-368.45" font-family="Helvetica Bold" font-size="11.00" fill="#e65100">nlp</text>
</g>
<g id="clust5" class="cluster">
<title>cluster_root.output</title>
<path fill="#fff3e0" stroke="#e65100" stroke-width="2" d="M2557.2,-160.9C2557.2,-160.9 2880.45,-160.9 2880.45,-160.9 2886.45,-160.9 2892.45,-166.9 2892.45,-172.9 2892.45,-172.9 2892.45,-378.9 2892.45,-378.9 2892.45,-384.9 2886.45,-390.9 2880.45,-390.9 2880.45,-390.9 2557.2,-390.9 2557.2,-390.9 2551.2,-390.9 2545.2,-384.9 2545.2,-378.9 2545.2,-378.9 2545.2,-172.9 2545.2,-172.9 2545.2,-166.9 2551.2,-160.9 2557.2,-160.9"/>
<text xml:space="preserve" text-anchor="middle" x="2718.83" y="-376.45" font-family="Helvetica Bold" font-size="11.00" fill="#e65100">output</text>
</g>
<!-- SOURCE -->
<g id="node1" class="node">
<title>SOURCE</title>
<polygon fill="#4caf50" stroke="#2e7d32" points="0,-46.33 59.85,-33.9 119.7,-46.33 119.65,-66.46 0.06,-66.46 0,-46.33"/>
<text xml:space="preserve" text-anchor="middle" x="59.85" y="-46.1" font-family="Helvetica Bold" font-size="14.00" fill="white">SOURCE</text>
</g>
<!-- root.reader -->
<g id="node3" class="node">
<title>root.reader</title>
<path fill="white" stroke="#3a7ebf" d="M308.7,-134.9C308.7,-134.9 278.7,-134.9 278.7,-134.9 272.7,-134.9 266.7,-128.9 266.7,-122.9 266.7,-122.9 266.7,-110.9 266.7,-110.9 266.7,-104.9 272.7,-98.9 278.7,-98.9 278.7,-98.9 308.7,-98.9 308.7,-98.9 314.7,-98.9 320.7,-104.9 320.7,-110.9 320.7,-110.9 320.7,-122.9 320.7,-122.9 320.7,-128.9 314.7,-134.9 308.7,-134.9"/>
<text xml:space="preserve" text-anchor="middle" x="293.7" y="-112.45" font-family="Helvetica,sans-Serif" font-size="11.00">reader</text>
</g>
<!-- SOURCE&#45;&gt;root.reader -->
<g id="edge25" class="edge">
<title>SOURCE:ne&#45;&gt;root.reader:w</title>
<path fill="none" stroke="#555555" d="M73.83,-66.87C74.83,-67.87 73.79,-68.93 74.83,-69.9 136.96,-127.37 175.85,-117.6 257.65,-116.93"/>
<polygon fill="#555555" stroke="#555555" points="257.2,-119.38 264.19,-116.9 257.18,-114.48 257.2,-119.38"/>
<text xml:space="preserve" text-anchor="middle" x="193.2" y="-120.66" font-family="Helvetica,sans-Serif" font-size="9.00">path→path</text>
</g>
<!-- root.output.formatter -->
<g id="node18" class="node">
<title>root.output.formatter</title>
<path fill="white" stroke="#e65100" d="M2633.7,-287.9C2633.7,-287.9 2565.2,-287.9 2565.2,-287.9 2559.2,-287.9 2553.2,-281.9 2553.2,-275.9 2553.2,-275.9 2553.2,-263.9 2553.2,-263.9 2553.2,-257.9 2559.2,-251.9 2565.2,-251.9 2565.2,-251.9 2633.7,-251.9 2633.7,-251.9 2639.7,-251.9 2645.7,-257.9 2645.7,-263.9 2645.7,-263.9 2645.7,-275.9 2645.7,-275.9 2645.7,-281.9 2639.7,-287.9 2633.7,-287.9"/>
<text xml:space="preserve" text-anchor="middle" x="2599.45" y="-265.45" font-family="Helvetica,sans-Serif" font-size="11.00">output.formatter</text>
</g>
<!-- SOURCE&#45;&gt;root.output.formatter -->
<g id="edge26" class="edge">
<title>SOURCE:se&#45;&gt;root.output.formatter:sw</title>
<path fill="none" stroke="#555555" d="M75.83,-36.92C144.27,31.53 195.9,-16.9 292.7,-16.9 292.7,-16.9 292.7,-16.9 2211.95,-16.9 2301.51,-16.9 2478.22,-176.86 2548.17,-245.9"/>
<polygon fill="#555555" stroke="#555555" points="2546.44,-247.63 2553.13,-250.83 2549.89,-244.16 2546.44,-247.63"/>
<text xml:space="preserve" text-anchor="middle" x="1276.7" y="-19.6" font-family="Helvetica,sans-Serif" font-size="9.00">format→format</text>
</g>
<!-- SINK -->
<g id="node2" class="node">
<title>SINK</title>
<polygon fill="#e65100" stroke="#bf360c" points="3126.98,-271.46 3088.22,-283.9 3049.45,-271.46 3049.49,-251.33 3126.94,-251.33 3126.98,-271.46"/>
<text xml:space="preserve" text-anchor="middle" x="3088.22" y="-260.1" font-family="Helvetica Bold" font-size="14.00" fill="white">SINK</text>
</g>
<!-- root.deduper -->
<g id="node4" class="node">
<title>root.deduper</title>
<path fill="white" stroke="#3a7ebf" d="M505.45,-160.9C505.45,-160.9 473.7,-160.9 473.7,-160.9 467.7,-160.9 461.7,-154.9 461.7,-148.9 461.7,-148.9 461.7,-136.9 461.7,-136.9 461.7,-130.9 467.7,-124.9 473.7,-124.9 473.7,-124.9 505.45,-124.9 505.45,-124.9 511.45,-124.9 517.45,-130.9 517.45,-136.9 517.45,-136.9 517.45,-148.9 517.45,-148.9 517.45,-154.9 511.45,-160.9 505.45,-160.9"/>
<text xml:space="preserve" text-anchor="middle" x="489.58" y="-138.45" font-family="Helvetica,sans-Serif" font-size="11.00">deduper</text>
</g>
<!-- root.reader&#45;&gt;root.deduper -->
<g id="edge10" class="edge">
<title>root.reader:e&#45;&gt;root.deduper:w</title>
<path fill="none" stroke="#555555" d="M320.7,-116.9C381.56,-116.9 396.66,-140.61 453.41,-142.74"/>
<polygon fill="#555555" stroke="#555555" points="453.15,-145.19 460.19,-142.87 453.24,-140.29 453.15,-145.19"/>
<text xml:space="preserve" text-anchor="middle" x="391.2" y="-138.62" font-family="Helvetica,sans-Serif" font-size="9.00">raw→raw</text>
</g>
<!-- root.logger -->
<g id="node5" class="node">
<title>root.logger</title>
<path fill="white" stroke="#3a7ebf" d="M1821.33,-117.9C1821.33,-117.9 1791.33,-117.9 1791.33,-117.9 1785.33,-117.9 1779.33,-111.9 1779.33,-105.9 1779.33,-105.9 1779.33,-93.9 1779.33,-93.9 1779.33,-87.9 1785.33,-81.9 1791.33,-81.9 1791.33,-81.9 1821.33,-81.9 1821.33,-81.9 1827.33,-81.9 1833.33,-87.9 1833.33,-93.9 1833.33,-93.9 1833.33,-105.9 1833.33,-105.9 1833.33,-111.9 1827.33,-117.9 1821.33,-117.9"/>
<text xml:space="preserve" text-anchor="middle" x="1806.33" y="-95.45" font-family="Helvetica,sans-Serif" font-size="11.00">logger</text>
</g>
<!-- root.deduper&#45;&gt;root.logger -->
<g id="edge12" class="edge">
<title>root.deduper:se&#45;&gt;root.logger:w</title>
<path fill="none" stroke="#555555" d="M517.45,-124.9C614.75,-27.6 1601.59,-97.28 1769.88,-99.82"/>
<polygon fill="#555555" stroke="#555555" points="1769.79,-102.27 1776.81,-99.88 1769.83,-97.37 1769.79,-102.27"/>
<text xml:space="preserve" text-anchor="middle" x="1139.33" y="-78.69" font-family="Helvetica,sans-Serif" font-size="9.00">duplicate→msg</text>
</g>
<!-- root.validator.type_check -->
<g id="node6" class="node">
<title>root.validator.type_check</title>
<path fill="white" stroke="#e65100" d="M775.7,-335.9C775.7,-335.9 686.95,-335.9 686.95,-335.9 680.95,-335.9 674.95,-329.9 674.95,-323.9 674.95,-323.9 674.95,-311.9 674.95,-311.9 674.95,-305.9 680.95,-299.9 686.95,-299.9 686.95,-299.9 775.7,-299.9 775.7,-299.9 781.7,-299.9 787.7,-305.9 787.7,-311.9 787.7,-311.9 787.7,-323.9 787.7,-323.9 787.7,-329.9 781.7,-335.9 775.7,-335.9"/>
<text xml:space="preserve" text-anchor="middle" x="731.33" y="-313.45" font-family="Helvetica,sans-Serif" font-size="11.00">validator.type_check</text>
</g>
<!-- root.deduper&#45;&gt;root.validator.type_check -->
<g id="edge11" class="edge">
<title>root.deduper:ne&#45;&gt;root.validator.type_check:w</title>
<path fill="none" stroke="#555555" d="M516.45,-160.9C584.29,-228.74 575.7,-312.81 665.54,-317.67"/>
<polygon fill="#555555" stroke="#555555" points="665.38,-320.12 672.44,-317.86 665.51,-315.22 665.38,-320.12"/>
<text xml:space="preserve" text-anchor="middle" x="596.2" y="-309.06" font-family="Helvetica,sans-Serif" font-size="9.00">unique→data</text>
</g>
<!-- root.logger&#45;&gt;SINK -->
<g id="edge31" class="edge">
<title>root.logger:e&#45;&gt;SINK:w</title>
<path fill="none" stroke="#555555" d="M1834.33,-99.9C1940.23,-99.9 1966.67,-103.9 2072.58,-103.9 2072.58,-103.9 2072.58,-103.9 2843.33,-103.9 2957,-103.9 2934.16,-258.08 3041.17,-265.61"/>
<polygon fill="#555555" stroke="#555555" points="3040.86,-268.05 3047.94,-265.84 3041.03,-263.15 3040.86,-268.05"/>
<text xml:space="preserve" text-anchor="middle" x="2461.7" y="-106.6" font-family="Helvetica,sans-Serif" font-size="9.00">done→logged</text>
</g>
<!-- root.validator.type_check&#45;&gt;root.logger -->
<g id="edge19" class="edge">
<title>root.validator.type_check:se&#45;&gt;root.logger:w</title>
<path fill="none" stroke="#555555" d="M787.7,-299.9C934.82,-152.78 1502.1,-158.72 1705.7,-115.9 1735.14,-109.7 1743.77,-101.53 1770.01,-100.11"/>
<polygon fill="#555555" stroke="#555555" points="1769.88,-102.56 1776.81,-99.93 1769.75,-97.67 1769.88,-102.56"/>
<text xml:space="preserve" text-anchor="middle" x="1276.7" y="-171.49" font-family="Helvetica,sans-Serif" font-size="9.00">invalid→msg</text>
</g>
<!-- root.validator.range_check -->
<g id="node7" class="node">
<title>root.validator.range_check</title>
<path fill="white" stroke="#e65100" d="M1044.45,-353.9C1044.45,-353.9 948.2,-353.9 948.2,-353.9 942.2,-353.9 936.2,-347.9 936.2,-341.9 936.2,-341.9 936.2,-329.9 936.2,-329.9 936.2,-323.9 942.2,-317.9 948.2,-317.9 948.2,-317.9 1044.45,-317.9 1044.45,-317.9 1050.45,-317.9 1056.45,-323.9 1056.45,-329.9 1056.45,-329.9 1056.45,-341.9 1056.45,-341.9 1056.45,-347.9 1050.45,-353.9 1044.45,-353.9"/>
<text xml:space="preserve" text-anchor="middle" x="996.33" y="-331.45" font-family="Helvetica,sans-Serif" font-size="11.00">validator.range_check</text>
</g>
<!-- root.validator.type_check&#45;&gt;root.validator.range_check -->
<g id="edge1" class="edge">
<title>root.validator.type_check:ne&#45;&gt;root.validator.range_check:w</title>
<path fill="none" stroke="#555555" d="M786.7,-335.9C831.67,-380.86 866.64,-339.76 927.8,-336.14"/>
<polygon fill="#555555" stroke="#555555" points="927.77,-338.6 934.69,-335.94 927.62,-333.7 927.77,-338.6"/>
<text xml:space="preserve" text-anchor="middle" x="861.95" y="-358.89" font-family="Helvetica,sans-Serif" font-size="9.00">valid→data</text>
</g>
<!-- root.validator.range_check&#45;&gt;root.logger -->
<g id="edge20" class="edge">
<title>root.validator.range_check:se&#45;&gt;root.logger:w</title>
<path fill="none" stroke="#555555" d="M1056.45,-317.9C1077.83,-296.52 1080.73,-348.77 1107.45,-362.9 1167.78,-394.79 1654.66,-547.19 1705.7,-501.9 1771.48,-443.53 1692.78,-120.98 1770.32,-100.88"/>
<polygon fill="#555555" stroke="#555555" points="1770.18,-103.36 1776.83,-100.08 1769.58,-98.5 1770.18,-103.36"/>
<text xml:space="preserve" text-anchor="middle" x="1408.83" y="-470.65" font-family="Helvetica,sans-Serif" font-size="9.00">invalid→msg</text>
</g>
<!-- root.validator.null_check -->
<g id="node8" class="node">
<title>root.validator.null_check</title>
<path fill="white" stroke="#e65100" d="M1319.2,-342.9C1319.2,-342.9 1234.2,-342.9 1234.2,-342.9 1228.2,-342.9 1222.2,-336.9 1222.2,-330.9 1222.2,-330.9 1222.2,-318.9 1222.2,-318.9 1222.2,-312.9 1228.2,-306.9 1234.2,-306.9 1234.2,-306.9 1319.2,-306.9 1319.2,-306.9 1325.2,-306.9 1331.2,-312.9 1331.2,-318.9 1331.2,-318.9 1331.2,-330.9 1331.2,-330.9 1331.2,-336.9 1325.2,-342.9 1319.2,-342.9"/>
<text xml:space="preserve" text-anchor="middle" x="1276.7" y="-320.45" font-family="Helvetica,sans-Serif" font-size="11.00">validator.null_check</text>
</g>
<!-- root.validator.range_check&#45;&gt;root.validator.null_check -->
<g id="edge2" class="edge">
<title>root.validator.range_check:ne&#45;&gt;root.validator.null_check:w</title>
<path fill="none" stroke="#555555" d="M1055.45,-353.9C1072.24,-370.69 1084.13,-346.09 1107.45,-341.65 1155.22,-332.55 1169.12,-325.71 1213.81,-324.96"/>
<polygon fill="#555555" stroke="#555555" points="1213.71,-327.41 1220.69,-324.91 1213.67,-322.51 1213.71,-327.41"/>
<text xml:space="preserve" text-anchor="middle" x="1139.33" y="-344.35" font-family="Helvetica,sans-Serif" font-size="9.00">valid→data</text>
</g>
<!-- root.validator.null_check&#45;&gt;root.logger -->
<g id="edge21" class="edge">
<title>root.validator.null_check:se&#45;&gt;root.logger:w</title>
<path fill="none" stroke="#555555" d="M1331.2,-306.9C1438.44,-199.66 1506.08,-231.57 1652.45,-191.9 1675.69,-185.6 1684.76,-193.77 1705.7,-181.9 1745.41,-159.38 1731.71,-107.01 1769.95,-100.55"/>
<polygon fill="#555555" stroke="#555555" points="1770.03,-103 1776.82,-100.01 1769.65,-98.12 1770.03,-103"/>
<text xml:space="preserve" text-anchor="middle" x="1543.95" y="-224.79" font-family="Helvetica,sans-Serif" font-size="9.00">invalid→msg</text>
</g>
<!-- root.validator.rule_engine -->
<g id="node9" class="node">
<title>root.validator.rule_engine</title>
<path fill="white" stroke="#e65100" d="M1589.45,-353.9C1589.45,-353.9 1498.45,-353.9 1498.45,-353.9 1492.45,-353.9 1486.45,-347.9 1486.45,-341.9 1486.45,-341.9 1486.45,-329.9 1486.45,-329.9 1486.45,-323.9 1492.45,-317.9 1498.45,-317.9 1498.45,-317.9 1589.45,-317.9 1589.45,-317.9 1595.45,-317.9 1601.45,-323.9 1601.45,-329.9 1601.45,-329.9 1601.45,-341.9 1601.45,-341.9 1601.45,-347.9 1595.45,-353.9 1589.45,-353.9"/>
<text xml:space="preserve" text-anchor="middle" x="1543.95" y="-331.45" font-family="Helvetica,sans-Serif" font-size="11.00">validator.rule_engine</text>
</g>
<!-- root.validator.null_check&#45;&gt;root.validator.rule_engine -->
<g id="edge3" class="edge">
<title>root.validator.null_check:ne&#45;&gt;root.validator.rule_engine:w</title>
<path fill="none" stroke="#555555" d="M1330.2,-342.9C1331.53,-344.23 1446.42,-337.99 1478.34,-336.3"/>
<polygon fill="#555555" stroke="#555555" points="1478.07,-338.77 1484.94,-335.97 1477.83,-333.88 1478.07,-338.77"/>
<text xml:space="preserve" text-anchor="middle" x="1408.83" y="-343.8" font-family="Helvetica,sans-Serif" font-size="9.00">valid→data</text>
</g>
<!-- root.validator.rule_engine&#45;&gt;root.logger -->
<g id="edge22" class="edge">
<title>root.validator.rule_engine:se&#45;&gt;root.logger:w</title>
<path fill="none" stroke="#555555" d="M1602.45,-317.9C1604.99,-315.36 1606.95,-316.46 1609.45,-313.9 1637.47,-285.25 1627.28,-265.83 1652.45,-234.65 1672.05,-210.37 1683.92,-211.24 1705.7,-188.9 1739.25,-154.48 1728.75,-105.99 1770,-100.42"/>
<polygon fill="#555555" stroke="#555555" points="1769.99,-102.88 1776.82,-99.99 1769.68,-97.99 1769.99,-102.88"/>
<text xml:space="preserve" text-anchor="middle" x="1679.08" y="-237.35" font-family="Helvetica,sans-Serif" font-size="9.00">invalid→msg</text>
</g>
<!-- root.translate.detector -->
<g id="node10" class="node">
<title>root.translate.detector</title>
<path fill="white" stroke="#e65100" d="M1843.95,-609.9C1843.95,-609.9 1768.7,-609.9 1768.7,-609.9 1762.7,-609.9 1756.7,-603.9 1756.7,-597.9 1756.7,-597.9 1756.7,-585.9 1756.7,-585.9 1756.7,-579.9 1762.7,-573.9 1768.7,-573.9 1768.7,-573.9 1843.95,-573.9 1843.95,-573.9 1849.95,-573.9 1855.95,-579.9 1855.95,-585.9 1855.95,-585.9 1855.95,-597.9 1855.95,-597.9 1855.95,-603.9 1849.95,-609.9 1843.95,-609.9"/>
<text xml:space="preserve" text-anchor="middle" x="1806.33" y="-587.45" font-family="Helvetica,sans-Serif" font-size="11.00">translate.detector</text>
</g>
<!-- root.validator.rule_engine&#45;&gt;root.translate.detector -->
<g id="edge13" class="edge">
<title>root.validator.rule_engine:ne&#45;&gt;root.translate.detector:w</title>
<path fill="none" stroke="#555555" d="M1600.45,-353.9C1654.82,-408.26 1607.13,-456.78 1652.45,-518.9 1683.9,-561.99 1698.04,-589.05 1747.46,-591.68"/>
<polygon fill="#555555" stroke="#555555" points="1747.13,-594.13 1754.19,-591.86 1747.25,-589.23 1747.13,-594.13"/>
<text xml:space="preserve" text-anchor="middle" x="1679.08" y="-581.98" font-family="Helvetica,sans-Serif" font-size="9.00">valid→text</text>
</g>
<!-- root.translate.translator -->
<g id="node11" class="node">
<title>root.translate.translator</title>
<path fill="white" stroke="#e65100" d="M2114.2,-530.9C2114.2,-530.9 2032.95,-530.9 2032.95,-530.9 2026.95,-530.9 2020.95,-524.9 2020.95,-518.9 2020.95,-518.9 2020.95,-506.9 2020.95,-506.9 2020.95,-500.9 2026.95,-494.9 2032.95,-494.9 2032.95,-494.9 2114.2,-494.9 2114.2,-494.9 2120.2,-494.9 2126.2,-500.9 2126.2,-506.9 2126.2,-506.9 2126.2,-518.9 2126.2,-518.9 2126.2,-524.9 2120.2,-530.9 2114.2,-530.9"/>
<text xml:space="preserve" text-anchor="middle" x="2073.58" y="-508.45" font-family="Helvetica,sans-Serif" font-size="11.00">translate.translator</text>
</g>
<!-- root.validator.rule_engine&#45;&gt;root.translate.translator -->
<g id="edge14" class="edge">
<title>root.validator.rule_engine:ne&#45;&gt;root.translate.translator:sw</title>
<path fill="none" stroke="#555555" d="M1600.45,-353.9C1621.66,-375.1 1625.78,-383.18 1652.45,-396.9 1801.03,-473.32 1898.54,-378.02 2015.99,-489.09"/>
<polygon fill="#555555" stroke="#555555" points="2014.14,-490.72 2020.87,-493.84 2017.56,-487.2 2014.14,-490.72"/>
<text xml:space="preserve" text-anchor="middle" x="1806.33" y="-433.08" font-family="Helvetica,sans-Serif" font-size="9.00">valid→text</text>
</g>
<!-- root.translate.quality -->
<g id="node12" class="node">
<title>root.translate.quality</title>
<path fill="white" stroke="#e65100" d="M1839.83,-530.9C1839.83,-530.9 1772.83,-530.9 1772.83,-530.9 1766.83,-530.9 1760.83,-524.9 1760.83,-518.9 1760.83,-518.9 1760.83,-506.9 1760.83,-506.9 1760.83,-500.9 1766.83,-494.9 1772.83,-494.9 1772.83,-494.9 1839.83,-494.9 1839.83,-494.9 1845.83,-494.9 1851.83,-500.9 1851.83,-506.9 1851.83,-506.9 1851.83,-518.9 1851.83,-518.9 1851.83,-524.9 1845.83,-530.9 1839.83,-530.9"/>
<text xml:space="preserve" text-anchor="middle" x="1806.33" y="-508.45" font-family="Helvetica,sans-Serif" font-size="11.00">translate.quality</text>
</g>
<!-- root.validator.rule_engine&#45;&gt;root.translate.quality -->
<g id="edge15" class="edge">
<title>root.validator.rule_engine:ne&#45;&gt;root.translate.quality:w</title>
<path fill="none" stroke="#555555" d="M1600.45,-353.9C1632.85,-386.29 1620.86,-409.72 1652.45,-442.9 1689.74,-482.06 1701.66,-509.94 1751.49,-512.68"/>
<polygon fill="#555555" stroke="#555555" points="1751.25,-515.12 1758.31,-512.86 1751.38,-510.22 1751.25,-515.12"/>
<text xml:space="preserve" text-anchor="middle" x="1679.08" y="-500.72" font-family="Helvetica,sans-Serif" font-size="9.00">valid→text</text>
</g>
<!-- root.nlp.tokenizer -->
<g id="node13" class="node">
<title>root.nlp.tokenizer</title>
<path fill="white" stroke="#e65100" d="M1832.7,-275.9C1832.7,-275.9 1779.95,-275.9 1779.95,-275.9 1773.95,-275.9 1767.95,-269.9 1767.95,-263.9 1767.95,-263.9 1767.95,-251.9 1767.95,-251.9 1767.95,-245.9 1773.95,-239.9 1779.95,-239.9 1779.95,-239.9 1832.7,-239.9 1832.7,-239.9 1838.7,-239.9 1844.7,-245.9 1844.7,-251.9 1844.7,-251.9 1844.7,-263.9 1844.7,-263.9 1844.7,-269.9 1838.7,-275.9 1832.7,-275.9"/>
<text xml:space="preserve" text-anchor="middle" x="1806.33" y="-253.45" font-family="Helvetica,sans-Serif" font-size="11.00">nlp.tokenizer</text>
</g>
<!-- root.validator.rule_engine&#45;&gt;root.nlp.tokenizer -->
<g id="edge16" class="edge">
<title>root.validator.rule_engine:ne&#45;&gt;root.nlp.tokenizer:w</title>
<path fill="none" stroke="#555555" d="M1600.45,-353.9C1636.68,-390.12 1661.96,-333.56 1705.7,-306.9 1732.91,-290.31 1732.43,-263.11 1758.77,-258.55"/>
<polygon fill="#555555" stroke="#555555" points="1758.66,-261.02 1765.44,-258.02 1758.27,-256.13 1758.66,-261.02"/>
<text xml:space="preserve" text-anchor="middle" x="1679.08" y="-353.99" font-family="Helvetica,sans-Serif" font-size="9.00">valid→text</text>
</g>
<!-- root.nlp.extractor -->
<g id="node16" class="node">
<title>root.nlp.extractor</title>
<path fill="white" stroke="#e65100" d="M1831.95,-354.9C1831.95,-354.9 1780.7,-354.9 1780.7,-354.9 1774.7,-354.9 1768.7,-348.9 1768.7,-342.9 1768.7,-342.9 1768.7,-330.9 1768.7,-330.9 1768.7,-324.9 1774.7,-318.9 1780.7,-318.9 1780.7,-318.9 1831.95,-318.9 1831.95,-318.9 1837.95,-318.9 1843.95,-324.9 1843.95,-330.9 1843.95,-330.9 1843.95,-342.9 1843.95,-342.9 1843.95,-348.9 1837.95,-354.9 1831.95,-354.9"/>
<text xml:space="preserve" text-anchor="middle" x="1806.33" y="-332.45" font-family="Helvetica,sans-Serif" font-size="11.00">nlp.extractor</text>
</g>
<!-- root.validator.rule_engine&#45;&gt;root.nlp.extractor -->
<g id="edge17" class="edge">
<title>root.validator.rule_engine:ne&#45;&gt;root.nlp.extractor:w</title>
<path fill="none" stroke="#555555" d="M1600.45,-353.9C1633.74,-387.19 1659.74,-376.11 1705.7,-365.9 1732.38,-359.96 1736.61,-341.28 1759.26,-337.55"/>
<polygon fill="#555555" stroke="#555555" points="1759.4,-340 1766.19,-337.01 1759.03,-335.11 1759.4,-340"/>
<text xml:space="preserve" text-anchor="middle" x="1679.08" y="-378.79" font-family="Helvetica,sans-Serif" font-size="9.00">valid→text</text>
</g>
<!-- root.nlp.summarizer -->
<g id="node17" class="node">
<title>root.nlp.summarizer</title>
<path fill="white" stroke="#e65100" d="M1839.08,-196.9C1839.08,-196.9 1773.58,-196.9 1773.58,-196.9 1767.58,-196.9 1761.58,-190.9 1761.58,-184.9 1761.58,-184.9 1761.58,-172.9 1761.58,-172.9 1761.58,-166.9 1767.58,-160.9 1773.58,-160.9 1773.58,-160.9 1839.08,-160.9 1839.08,-160.9 1845.08,-160.9 1851.08,-166.9 1851.08,-172.9 1851.08,-172.9 1851.08,-184.9 1851.08,-184.9 1851.08,-190.9 1845.08,-196.9 1839.08,-196.9"/>
<text xml:space="preserve" text-anchor="middle" x="1806.33" y="-174.45" font-family="Helvetica,sans-Serif" font-size="11.00">nlp.summarizer</text>
</g>
<!-- root.validator.rule_engine&#45;&gt;root.nlp.summarizer -->
<g id="edge18" class="edge">
<title>root.validator.rule_engine:ne&#45;&gt;root.nlp.summarizer:w</title>
<path fill="none" stroke="#555555" d="M1600.45,-353.9C1625.46,-378.91 1627.41,-318.63 1652.45,-293.65 1674.54,-271.61 1684.06,-270.37 1705.7,-247.9 1730.76,-221.87 1722.95,-185.19 1752.28,-179.62"/>
<polygon fill="#555555" stroke="#555555" points="1752.31,-182.07 1759.07,-179.03 1751.88,-177.19 1752.31,-182.07"/>
<text xml:space="preserve" text-anchor="middle" x="1679.08" y="-296.35" font-family="Helvetica,sans-Serif" font-size="9.00">valid→text</text>
</g>
<!-- root.translate.detector&#45;&gt;SINK -->
<g id="edge30" class="edge">
<title>root.translate.detector:se&#45;&gt;SINK:nw</title>
<path fill="none" stroke="#555555" d="M1855.95,-573.9C1873.06,-556.79 2048.38,-595.9 2072.58,-595.9 2072.58,-595.9 2072.58,-595.9 2843.33,-595.9 3014.44,-595.9 2952.56,-408.56 3067.83,-285.47"/>
<polygon fill="#555555" stroke="#555555" points="3069.3,-287.48 3072.4,-280.74 3065.77,-284.07 3069.3,-287.48"/>
<text xml:space="preserve" text-anchor="middle" x="2461.7" y="-598.6" font-family="Helvetica,sans-Serif" font-size="9.00">confidence→quality</text>
</g>
<!-- root.translate.detector&#45;&gt;root.translate.translator -->
<g id="edge4" class="edge">
<title>root.translate.detector:ne&#45;&gt;root.translate.translator:nw</title>
<path fill="none" stroke="#555555" d="M1854.95,-609.9C1879.26,-634.2 1876.97,-569.46 1906.95,-552.65 1949.48,-528.8 1980.88,-563.19 2015,-536.22"/>
<polygon fill="#555555" stroke="#555555" points="2016.24,-538.4 2019.82,-531.9 2012.97,-534.74 2016.24,-538.4"/>
<text xml:space="preserve" text-anchor="middle" x="1938.45" y="-555.35" font-family="Helvetica,sans-Serif" font-size="9.00">lang→lang</text>
</g>
<!-- root.translate.translator&#45;&gt;root.output.formatter -->
<g id="edge23" class="edge">
<title>root.translate.translator:e&#45;&gt;root.output.formatter:nw</title>
<path fill="none" stroke="#555555" d="M2127.2,-512.9C2338.22,-512.9 2399.52,-440.89 2546.49,-293.61"/>
<polygon fill="#555555" stroke="#555555" points="2547.92,-295.65 2551.13,-288.97 2544.45,-292.19 2547.92,-295.65"/>
<text xml:space="preserve" text-anchor="middle" x="2332.95" y="-490.85" font-family="Helvetica,sans-Serif" font-size="9.00">translated→data</text>
</g>
<!-- root.nlp.embedder -->
<g id="node14" class="node">
<title>root.nlp.embedder</title>
<path fill="white" stroke="#e65100" d="M2102.58,-284.9C2102.58,-284.9 2044.58,-284.9 2044.58,-284.9 2038.58,-284.9 2032.58,-278.9 2032.58,-272.9 2032.58,-272.9 2032.58,-260.9 2032.58,-260.9 2032.58,-254.9 2038.58,-248.9 2044.58,-248.9 2044.58,-248.9 2102.58,-248.9 2102.58,-248.9 2108.58,-248.9 2114.58,-254.9 2114.58,-260.9 2114.58,-260.9 2114.58,-272.9 2114.58,-272.9 2114.58,-278.9 2108.58,-284.9 2102.58,-284.9"/>
<text xml:space="preserve" text-anchor="middle" x="2073.58" y="-262.45" font-family="Helvetica,sans-Serif" font-size="11.00">nlp.embedder</text>
</g>
<!-- root.nlp.tokenizer&#45;&gt;root.nlp.embedder -->
<g id="edge5" class="edge">
<title>root.nlp.tokenizer:e&#45;&gt;root.nlp.embedder:w</title>
<path fill="none" stroke="#555555" d="M1845.7,-257.9C1925.5,-257.9 1947.35,-266.27 2023.08,-266.86"/>
<polygon fill="#555555" stroke="#555555" points="2023.05,-269.31 2030.06,-266.89 2023.07,-264.41 2023.05,-269.31"/>
<text xml:space="preserve" text-anchor="middle" x="1938.45" y="-267.42" font-family="Helvetica,sans-Serif" font-size="9.00">tokens→tokens</text>
</g>
<!-- root.nlp.classifier -->
<g id="node15" class="node">
<title>root.nlp.classifier</title>
<path fill="white" stroke="#e65100" d="M2358.2,-301.9C2358.2,-301.9 2307.7,-301.9 2307.7,-301.9 2301.7,-301.9 2295.7,-295.9 2295.7,-289.9 2295.7,-289.9 2295.7,-277.9 2295.7,-277.9 2295.7,-271.9 2301.7,-265.9 2307.7,-265.9 2307.7,-265.9 2358.2,-265.9 2358.2,-265.9 2364.2,-265.9 2370.2,-271.9 2370.2,-277.9 2370.2,-277.9 2370.2,-289.9 2370.2,-289.9 2370.2,-295.9 2364.2,-301.9 2358.2,-301.9"/>
<text xml:space="preserve" text-anchor="middle" x="2332.95" y="-279.45" font-family="Helvetica,sans-Serif" font-size="11.00">nlp.classifier</text>
</g>
<!-- root.nlp.embedder&#45;&gt;root.nlp.classifier -->
<g id="edge6" class="edge">
<title>root.nlp.embedder:e&#45;&gt;root.nlp.classifier:w</title>
<path fill="none" stroke="#555555" d="M2115.58,-266.9C2193.16,-266.9 2213.86,-282.72 2287.44,-283.83"/>
<polygon fill="#555555" stroke="#555555" points="2287.17,-286.28 2294.19,-283.88 2287.21,-281.38 2287.17,-286.28"/>
<text xml:space="preserve" text-anchor="middle" x="2210.95" y="-283.75" font-family="Helvetica,sans-Serif" font-size="9.00">vectors→vectors</text>
</g>
<!-- root.nlp.classifier&#45;&gt;root.output.formatter -->
<g id="edge24" class="edge">
<title>root.nlp.classifier:e&#45;&gt;root.output.formatter:nw</title>
<path fill="none" stroke="#555555" d="M2371.2,-283.9C2448.84,-283.9 2492.19,-340.59 2546.25,-293.47"/>
<polygon fill="#555555" stroke="#555555" points="2547.66,-295.5 2551.1,-288.93 2544.31,-291.92 2547.66,-295.5"/>
<text xml:space="preserve" text-anchor="middle" x="2461.7" y="-314.89" font-family="Helvetica,sans-Serif" font-size="9.00">label→data</text>
</g>
<!-- root.output.db -->
<g id="node19" class="node">
<title>root.output.db</title>
<path fill="white" stroke="#e65100" d="M2860.83,-362.9C2860.83,-362.9 2823.83,-362.9 2823.83,-362.9 2817.83,-362.9 2811.83,-356.9 2811.83,-350.9 2811.83,-350.9 2811.83,-338.9 2811.83,-338.9 2811.83,-332.9 2817.83,-326.9 2823.83,-326.9 2823.83,-326.9 2860.83,-326.9 2860.83,-326.9 2866.83,-326.9 2872.83,-332.9 2872.83,-338.9 2872.83,-338.9 2872.83,-350.9 2872.83,-350.9 2872.83,-356.9 2866.83,-362.9 2860.83,-362.9"/>
<text xml:space="preserve" text-anchor="middle" x="2842.33" y="-340.45" font-family="Helvetica,sans-Serif" font-size="11.00">output.db</text>
</g>
<!-- root.output.formatter&#45;&gt;root.output.db -->
<g id="edge7" class="edge">
<title>root.output.formatter:e&#45;&gt;root.output.db:w</title>
<path fill="none" stroke="#555555" d="M2645.7,-269.9C2663.96,-269.9 2768.19,-331.49 2802.57,-343.04"/>
<polygon fill="#555555" stroke="#555555" points="2801.98,-345.42 2809.35,-344.56 2803.06,-340.64 2801.98,-345.42"/>
<text xml:space="preserve" text-anchor="middle" x="2722.95" y="-319.02" font-family="Helvetica,sans-Serif" font-size="9.00">output→data</text>
</g>
<!-- root.output.cache -->
<g id="node20" class="node">
<title>root.output.cache</title>
<path fill="white" stroke="#e65100" d="M2869.08,-283.9C2869.08,-283.9 2815.58,-283.9 2815.58,-283.9 2809.58,-283.9 2803.58,-277.9 2803.58,-271.9 2803.58,-271.9 2803.58,-259.9 2803.58,-259.9 2803.58,-253.9 2809.58,-247.9 2815.58,-247.9 2815.58,-247.9 2869.08,-247.9 2869.08,-247.9 2875.08,-247.9 2881.08,-253.9 2881.08,-259.9 2881.08,-259.9 2881.08,-271.9 2881.08,-271.9 2881.08,-277.9 2875.08,-283.9 2869.08,-283.9"/>
<text xml:space="preserve" text-anchor="middle" x="2842.33" y="-261.45" font-family="Helvetica,sans-Serif" font-size="11.00">output.cache</text>
</g>
<!-- root.output.formatter&#45;&gt;root.output.cache -->
<g id="edge8" class="edge">
<title>root.output.formatter:e&#45;&gt;root.output.cache:w</title>
<path fill="none" stroke="#555555" d="M2645.7,-269.9C2712.59,-269.9 2731.32,-266.22 2794.25,-265.92"/>
<polygon fill="#555555" stroke="#555555" points="2794.07,-268.37 2801.06,-265.9 2794.06,-263.47 2794.07,-268.37"/>
<text xml:space="preserve" text-anchor="middle" x="2722.95" y="-271.73" font-family="Helvetica,sans-Serif" font-size="9.00">output→data</text>
</g>
<!-- root.output.indexer -->
<g id="node21" class="node">
<title>root.output.indexer</title>
<path fill="white" stroke="#e65100" d="M2872.45,-204.9C2872.45,-204.9 2812.2,-204.9 2812.2,-204.9 2806.2,-204.9 2800.2,-198.9 2800.2,-192.9 2800.2,-192.9 2800.2,-180.9 2800.2,-180.9 2800.2,-174.9 2806.2,-168.9 2812.2,-168.9 2812.2,-168.9 2872.45,-168.9 2872.45,-168.9 2878.45,-168.9 2884.45,-174.9 2884.45,-180.9 2884.45,-180.9 2884.45,-192.9 2884.45,-192.9 2884.45,-198.9 2878.45,-204.9 2872.45,-204.9"/>
<text xml:space="preserve" text-anchor="middle" x="2842.33" y="-182.45" font-family="Helvetica,sans-Serif" font-size="11.00">output.indexer</text>
</g>
<!-- root.output.formatter&#45;&gt;root.output.indexer -->
<g id="edge9" class="edge">
<title>root.output.formatter:e&#45;&gt;root.output.indexer:w</title>
<path fill="none" stroke="#555555" d="M2645.7,-269.9C2663.36,-269.9 2759.9,-201.73 2792.35,-188.95"/>
<polygon fill="#555555" stroke="#555555" points="2792.58,-191.42 2798.74,-187.28 2791.35,-186.68 2792.58,-191.42"/>
<text xml:space="preserve" text-anchor="middle" x="2722.95" y="-245.75" font-family="Helvetica,sans-Serif" font-size="9.00">output→data</text>
</g>
<!-- root.output.db&#45;&gt;SINK -->
<g id="edge27" class="edge">
<title>root.output.db:e&#45;&gt;SINK:nw</title>
<path fill="none" stroke="#555555" d="M2873.83,-344.9C2964.43,-344.9 3005.05,-345.61 3067.72,-285.29"/>
<polygon fill="#555555" stroke="#555555" points="3069.1,-287.37 3072.38,-280.72 3065.66,-283.87 3069.1,-287.37"/>
<text xml:space="preserve" text-anchor="middle" x="2966.95" y="-346.56" font-family="Helvetica,sans-Serif" font-size="9.00">done→stored</text>
</g>
<!-- root.output.cache&#45;&gt;SINK -->
<g id="edge28" class="edge">
<title>root.output.cache:e&#45;&gt;SINK:w</title>
<path fill="none" stroke="#555555" d="M2882.08,-265.9C2953.56,-265.9 2973.53,-265.9 3040.98,-265.9"/>
<polygon fill="#555555" stroke="#555555" points="3040.94,-268.35 3047.94,-265.9 3040.94,-263.45 3040.94,-268.35"/>
<text xml:space="preserve" text-anchor="middle" x="2966.95" y="-268.6" font-family="Helvetica,sans-Serif" font-size="9.00">done→cached</text>
</g>
<!-- root.output.indexer&#45;&gt;SINK -->
<g id="edge29" class="edge">
<title>root.output.indexer:e&#45;&gt;SINK:sw</title>
<path fill="none" stroke="#555555" d="M2885.45,-186.9C2970.51,-186.9 3008.98,-185.73 3068.52,-245.09"/>
<polygon fill="#555555" stroke="#555555" points="3066.63,-246.67 3073.29,-249.95 3070.13,-243.24 3066.63,-246.67"/>
<text xml:space="preserve" text-anchor="middle" x="2966.95" y="-199.24" font-family="Helvetica,sans-Serif" font-size="9.00">done→indexed</text>
</g>
</g>

<script type="application/json" id="hdag-data">{"nodes":{"root.reader":"reader","root.deduper":"deduper","root.validator.type_check":"type_check","root.validator.range_check":"range_check","root.validator.null_check":"null_check","root.validator.rule_engine":"rule_engine","root.translate.detector":"detector","root.translate.translator":"translator","root.translate.quality":"quality","root.nlp.tokenizer":"tokenizer","root.nlp.embedder":"embedder","root.nlp.classifier":"classifier","root.nlp.extractor":"extractor","root.nlp.summarizer":"summarizer","root.output.formatter":"formatter","root.output.db":"db","root.output.cache":"cache","root.output.indexer":"indexer","root.logger":"logger","SOURCE":"SOURCE","SINK":"SINK"},"ports":{"root.reader":{"in":["path"],"out":["raw"]},"root.deduper":{"in":["raw"],"out":["unique","duplicate"]},"root.validator.type_check":{"in":["data"],"out":["valid","invalid"]},"root.validator.range_check":{"in":["data"],"out":["valid","invalid"]},"root.validator.null_check":{"in":["data"],"out":["valid","invalid"]},"root.validator.rule_engine":{"in":["data"],"out":["valid","invalid"]},"root.translate.detector":{"in":["text"],"out":["lang","confidence"]},"root.translate.translator":{"in":["lang","text"],"out":["translated"]},"root.translate.quality":{"in":["text"],"out":[]},"root.nlp.tokenizer":{"in":["text"],"out":["tokens"]},"root.nlp.embedder":{"in":["tokens"],"out":["vectors"]},"root.nlp.classifier":{"in":["vectors"],"out":["label"]},"root.nlp.extractor":{"in":["text"],"out":[]},"root.nlp.summarizer":{"in":["text"],"out":[]},"root.output.formatter":{"in":["data","format"],"out":["output"]},"root.output.db":{"in":["data"],"out":["done"]},"root.output.cache":{"in":["data"],"out":["done"]},"root.output.indexer":{"in":["data"],"out":["done"]},"root.logger":{"in":["msg"],"out":["done"]}}}</script>
</svg>
